Inverse Dynamics Generalized Forces
version=1
nRows=16
nColumns=34
inDegrees=no
endheader 
time	pelvis_tilt_moment	pelvis_list_moment	pelvis_rotation_moment	pelvis_tx_force	pelvis_ty_force	pelvis_tz_force	hip_flexion_l_moment	hip_adduction_l_moment	hip_rotation_l_moment	hip_flexion_r_moment	hip_adduction_r_moment	hip_rotation_r_moment	knee_angle_l_moment	knee_angle_r_moment	ankle_angle_l_moment	ankle_angle_r_moment	subtalar_angle_l_moment	subtalar_angle_r_moment	mtp_angle_l_moment	mtp_angle_r_moment	lumbar_extension_moment	lumbar_bending_moment	lumbar_rotation_moment	arm_flex_l_moment	arm_add_l_moment	arm_rot_l_moment	arm_flex_r_moment	arm_add_r_moment	arm_rot_r_moment	elbow_flex_l_moment	elbow_flex_r_moment	pro_sup_l_moment	pro_sup_r_moment	
          1.45000000	          0.00000021	          0.00000009	          0.00000017	         -0.00000020	          0.00000109	          0.00000008	        -93.74528842	        -22.53941885	         10.15099613	         31.09075700	         -0.44848779	         -2.88966770	       -105.77670620	          7.07442263	        -54.11622412	          0.70171420	         17.43590209	         -0.39352529	          5.72960992	         -0.04189714	         62.88989625	         44.10165107	          1.63257476	         -6.83677611	         -4.45572170	          0.13078059	          1.98995016	        -15.75806226	         -2.06304570	         -0.41496675	         -1.25546108	          0.25248601	          0.13317627	
          1.46000000	          0.00000054	         -0.00000061	         -0.00000006	          0.00000064	          0.00000096	          0.00000105	       -107.07427079	        -20.64872937	          9.28243688	         27.43532032	          0.65627456	         -3.03285085	        -96.65931572	          7.51837242	        -54.83952238	          0.52315858	         17.21036677	         -0.32413110	          5.70467058	         -0.03068213	         75.68244696	         47.59359643	         -1.96096667	         -9.25215520	         -7.26803507	         -1.45326490	          1.26142424	        -12.63662815	         -1.31561251	         -0.75966488	         -0.29846222	          0.15914045	          0.24893829	
          1.47000000	          0.00000014	         -0.00000064	         -0.00000015	          0.00000054	          0.00000121	          0.00000101	       -118.25509127	        -21.04482848	          8.11070344	         24.44441678	          1.55498991	         -3.19515602	        -90.26728664	          7.84659372	        -55.20082332	          0.40100815	         16.57496485	         -0.25254596	          5.70622838	         -0.02570692	         95.08136229	         46.95022435	        -12.34868164	         -4.53863519	         -9.87130048	         -2.09655357	          1.24621941	         -9.41632824	         -1.82809311	          1.14344880	          0.16445742	         -0.10313403	         -0.00647411	
          1.48000000	          0.00000001	         -0.00000088	         -0.00000025	         -0.00000031	          0.00000136	          0.00000153	       -128.51877163	        -20.86229352	          7.22355015	         22.53713740	          2.35388802	         -3.25425497	        -85.91703646	          8.05486677	        -55.75721767	          0.31369283	         16.60561725	         -0.20379300	          5.71289501	         -0.02169314	        111.23670298	         45.67251351	        -20.78822338	         -0.19140397	        -10.69103879	         -2.11694954	          1.35470257	         -7.62229060	         -2.40768860	          2.67303754	          0.24518089	         -0.31850870	         -0.26848937	
          1.49000000	         -0.00000108	         -0.00000119	         -0.00000054	         -0.00000092	          0.00000148	          0.00000171	       -130.11160403	        -19.98913038	          7.43749594	         20.38568022	          2.59690288	         -3.12085391	        -84.70429350	          8.18116653	        -56.22838022	          0.18786180	         16.77316695	         -0.16167509	          5.70014687	         -0.01001862	        106.46827607	         42.52557634	        -18.55235439	         -3.88455899	         -6.58034776	         -1.32595951	          1.08578525	        -12.48452859	         -2.74109677	          0.61951689	         -1.11950622	         -0.35051232	         -0.31281928	
          1.50000000	          0.00000138	         -0.00000042	          0.00000005	          0.00000123	          0.00000103	          0.00000095	       -121.43552376	        -19.96798882	          8.56306952	         16.74574911	          2.40760107	         -2.76362194	        -88.53677447	          8.90009982	        -56.55369590	          0.04953021	         16.75289238	         -0.11993002	          5.76415599	          0.00020623	         96.14816755	         39.22117989	        -13.14645621	         -6.41545508	         -3.16044765	         -0.91019434	          0.66914494	        -14.00031687	         -2.48566266	         -0.87814792	         -1.71191275	         -0.30731229	         -0.25558542	
          1.51000000	         -0.00000011	         -0.00000040	         -0.00000017	         -0.00000001	          0.00000102	          0.00000053	       -105.24327497	        -18.80687054	          9.25439285	         15.97930663	          1.58840345	         -2.46509039	        -92.63861445	          8.88919166	        -55.85142495	          0.05369745	         16.48558470	         -0.12760709	          5.80680729	          0.00017116	         78.13772752	         37.68891271	         -3.07729188	         -7.41521961	         -0.45859874	         -0.83751672	         -0.78353785	        -10.59402912	         -1.26953487	         -1.73296887	         -2.06517792	         -0.18726241	         -0.07295722	
          1.52000000	          0.00000076	          0.00000073	          0.00000036	          0.00000052	          0.00000082	         -0.00000094	        -78.58629848	        -18.75326292	         10.17287297	         14.33621872	          1.12470238	         -2.16463322	        -97.97144302	          8.98398037	        -52.35658699	          0.06424832	         15.71695804	         -0.11909286	          5.67606957	         -0.00448390	         57.32709517	         31.71708933	          5.14322290	         -3.24946861	         -0.00142680	         -0.32160014	         -0.48910050	         -6.68872642	         -1.07314483	         -0.41833949	         -1.49542630	          0.08788969	          0.04095840	
          1.53000000	          0.00000019	         -0.00000015	          0.00000008	          0.00000024	          0.00000073	          0.00000013	        -68.83687526	        -15.18403545	          9.01616637	         13.34744968	          3.14749918	         -3.19152442	        -82.55050670	          7.98132449	        -49.43515540	          0.02346760	         14.62670087	         -0.01704155	          5.49052577	         -0.00969035	         49.47531990	         26.60520546	          4.20172809	          2.48686037	         -1.00564668	          0.41528245	         -1.02955661	         -3.33520851	         -0.71790816	          2.19930109	         -1.35561263	          0.33522522	          0.14575420	
          1.54000000	         -0.00000012	          0.00000002	         -0.00000004	         -0.00000038	          0.00000106	          0.00000026	        -41.17948203	        -14.17710287	          9.34705172	         12.12901341	          2.65546144	         -2.90728167	        -81.44484224	          7.53345988	        -39.65672594	          0.00851133	         12.32023114	         -0.01729223	          4.75629664	         -0.00810304	         21.12045991	         20.51778218	         14.24408495	         -1.44418109	         -1.34191969	         -0.04565789	          0.46065088	         -3.15254756	         -0.31357769	          0.46271953	          0.53025311	          0.25248397	          0.12937388	
          1.55000000	         -0.00000020	         -0.00000095	         -0.00000039	          0.00000003	          0.00000122	          0.00000138	        -20.45778131	        -12.74106529	          8.12382797	         12.20723191	          1.76677315	         -2.60227598	        -38.41017284	          6.62675974	        -46.62378016	          0.05911627	          9.69339664	         -0.03125915	          5.36537692	         -0.01271506	        -11.92147317	          7.55607102	         24.07210027	          0.34599351	         -1.18120487	          0.36941572	         -4.14264723	         12.50540188	          4.28688162	          1.21508654	          1.16604855	          0.15020602	          0.41747025	
          1.56000000	         -0.00000039	          0.00000035	          0.00000003	         -0.00000115	          0.00000048	         -0.00000033	          8.55926376	         -4.69847191	          4.47118909	         11.24629656	          0.51520246	         -2.10611724	        -99.05382638	          6.78728031	         -8.13114863	          0.12717010	          9.28435772	         -0.06418657	          1.53542831	         -0.01814674	         -5.11210871	         24.91304700	         30.56410235	         -9.87494537	         -9.76934775	         -1.90248287	         12.33151143	        -11.32039727	         -3.68195870	         -1.07237339	          8.30164021	         -0.26147231	         -0.45932614	
          1.57000000	         -0.00000074	         -0.00000004	         -0.00000018	         -0.00000079	          0.00000086	         -0.00000007	        -92.93960713	        -15.66651373	         14.64779235	         17.07939962	          3.41795315	         -2.86600482	        -55.20509370	          5.66359475	        -46.31869393	          0.15789248	         11.39729526	         -0.07622297	          5.18548145	         -0.01560205	         70.71117998	         26.56495015	        -11.16825672	         -4.77817815	         -4.92401867	         -0.71243029	          0.51676409	         -8.83597538	         -2.03726016	         -0.24367746	         -0.93895075	         -0.12435978	         -0.23279615	
          1.58000000	         -0.00000012	          0.00000039	          0.00000014	         -0.00000053	          0.00000125	         -0.00000061	        -98.05239462	        -10.84837259	         11.17515262	         16.16023508	          2.67613773	         -2.53509534	        -76.15949441	          6.24150902	        -55.25641672	          0.18620370	         15.77423260	         -0.10489973	          6.08607191	         -0.01566472	         79.54416334	         30.75867082	         -3.89845334	         -4.76708793	         -4.80348036	         -1.07092729	          4.23018415	        -10.85137195	         -3.18378826	         -0.12388763	          1.27354412	         -0.12879470	         -0.30154982	
          1.59000000	         -0.00000026	          0.00000095	          0.00000031	         -0.00000031	          0.00000129	         -0.00000151	       -138.57662248	        -11.62510293	         11.69975119	         19.68907446	          5.35304823	         -3.17810355	        -68.12073931	          6.26875154	        -68.31961010	          0.18232882	         18.54741601	         -0.14308255	          7.19693573	         -0.00842408	        102.82854101	         33.84934760	        -16.47959469	         -3.67360692	          2.52139368	         -0.57005140	         -0.19175642	        -12.81007976	         -2.23982738	         -1.34564955	         -1.63314213	          0.00086834	         -0.09890344	
          1.60000000	         -0.00000034	          0.00000110	          0.00000021	         -0.00000089	          0.00000176	         -0.00000135	       -136.94837850	         -9.80990834	         10.47343691	         18.81574221	          4.59648709	         -2.91832061	        -81.86600409	          7.19923459	        -73.05611880	          0.11313655	         21.53042889	         -0.13640504	          7.70244874	         -0.00171408	         95.41460563	         36.67166652	         -5.04001087	         -4.49105704	          5.50559395	         -0.26951391	         -4.36887433	         -9.23787280	         -0.60417818	         -2.40258647	         -4.07122209	         -0.03272962	          0.07680404	
